<svg width="152" height="152" viewBox="0 0 152 152" fill="none" xmlns="http://www.w3.org/2000/svg">
<path d="M76 0.4375C117.742 0.4375 151.562 34.2578 151.562 76C151.562 117.742 117.742 151.562 76 151.562C34.2578 151.562 0.4375 117.742 0.4375 76C0.4375 34.2578 34.2578 0.4375 76 0.4375ZM110.704 70.8203L69.4187 29.5352C66.5547 26.6711 61.9234 26.6711 59.0898 29.5352L53.9102 34.7148C51.0461 37.5789 51.0461 42.2102 53.9102 45.0437L84.8664 76L53.9102 106.956C51.0461 109.82 51.0461 114.452 53.9102 117.285L59.0898 122.465C61.9539 125.329 66.5852 125.329 69.4187 122.465L110.704 81.1797C113.568 78.3156 113.568 73.6844 110.704 70.8203Z" fill="#22B73A"/>
</svg>
